     1|<svg xmlns="http://www.w3.org/2000/svg" width="800" height="420" viewBox="0 0 800 420">
     2|  <defs>
     3|    <linearGradient id="bg" x1="0%" y1="0%" x2="100%" y2="100%">
     4|      <stop offset="0%" style="stop-color:hsl(209, 55%, 42%)"/>
     5|      <stop offset="50%" style="stop-color:hsl(209, 50%, 38%)"/>
     6|      <stop offset="100%" style="stop-color:hsl(224, 45%, 32%)"/>
     7|    </linearGradient>
     8|    <linearGradient id="accent" x1="0%" y1="0%" x2="0%" y2="100%">
     9|      <stop offset="0%" style="stop-color:rgba(255,255,255,0.25)"/>
    10|      <stop offset="100%" style="stop-color:rgba(255,255,255,0.05)"/>
    11|    </linearGradient>
    12|    <filter id="shadow"><feDropShadow dx="0" dy="2" stdDeviation="3" flood-color="rgba(0,0,0,0.25)"/></filter>
    13|    <filter id="softShadow"><feDropShadow dx="0" dy="1" stdDeviation="2" flood-color="rgba(0,0,0,0.15)"/></filter>
    14|    <pattern id="dots" x="0" y="0" width="24" height="24" patternUnits="userSpaceOnUse">
    15|      <circle cx="2" cy="2" r="1" fill="rgba(255,255,255,0.06)"/>
    16|    </pattern>
    17|  </defs>
    18|  <rect width="800" height="420" fill="url(#bg)"/>
    19|  <rect width="800" height="420" fill="url(#dots)"/>
    20|  <circle cx="680" cy="80" r="140" fill="white" opacity="0.08"/>
    21|  <circle cx="100" cy="340" r="90" fill="white" opacity="0.06"/>
    22|  <circle cx="720" cy="360" r="60" fill="white" opacity="0.1"/>
    23|  <circle cx="40" cy="60" r="180" fill="white" opacity="0.04"/>
    24|  <circle cx="509" cy="319" r="11" fill="white" opacity="0.35"/>
    25|  <circle cx="541" cy="261" r="6" fill="white" opacity="0.3"/>
    26|  <line x1="0" y1="180" x2="800" y2="280" stroke="white" stroke-width="1" opacity="0.05"/>
    27|  <line x1="0" y1="220" x2="800" y2="320" stroke="white" stroke-width="0.5" opacity="0.034999999999999996"/>
    28|  <rect x="0" y="0" width="6" height="420" fill="url(#accent)"/>
    29|  <rect x="48" y="157.0" width="704" height="86.0" rx="8" fill="rgba(0,0,0,0.12)"/>
    30|  <text x="400" y="184.988" text-anchor="middle" fill="white" font-size="36" font-weight="700" font-family="'PingFang SC','Microsoft YaHei','Noto Sans SC',sans-serif" filter="url(#shadow)" letter-spacing="2">拾光诞生记：一段代码的旅程</text>
    31|  <g transform="translate(0, 310)">
    32|    <line x1="200" y1="0" x2="600" y2="0" stroke="rgba(255,255,255,0.25)" stroke-width="1"/>
    33|    <rect x="392" y="-4" width="16" height="8" rx="2" fill="rgba(255,255,255,0.5)" transform="rotate(45, 400, 0)"/>
    34|    <text x="400" y="32" text-anchor="middle" fill="rgba(255,255,255,0.75)" font-size="13" font-family="sans-serif" font-weight="500" letter-spacing="1" filter="url(#softShadow)">Hermes · 2026-05-15</text>
    35|    <text x="400" y="58" text-anchor="middle" fill="rgba(255,255,255,0.35)" font-size="10" font-family="sans-serif" letter-spacing="3">拾光博客</text>
    36|  </g>
    37|  <g transform="translate(28, 28)">
    38|    <rect x="0" y="0" width="96" height="28" rx="14" fill="rgba(255,255,255,0.18)"/>
    39|    <text x="48.0" y="19" text-anchor="middle" fill="rgba(255,255,255,0.8)" font-size="12" font-family="sans-serif" font-weight="500">博客日志</text>
    40|  </g>
    41|  <circle cx="760" cy="380" r="30" fill="none" stroke="rgba(255,255,255,0.1)" stroke-width="1.5"/>
    42|  <circle cx="760" cy="380" r="15" fill="none" stroke="rgba(255,255,255,0.08)" stroke-width="1"/>
    43|</svg>